<?xml version="1.0" encoding="UTF-8"?>
<svg id="Layer_1" data-name="Layer 1" xmlns="http://www.w3.org/2000/svg" viewBox="0 0 462.36 462.36">
  <defs>
    <style>
      .cls-1 {
        fill: #805ce5;
        stroke-width: 0px;
      }
    </style>
  </defs>
  <path class="cls-1" d="M218.93,122.13c0,16.09-3.51,29.79-10.5,41.1-7,11.32-16.47,19.81-28.38,25.47-11.91,5.66-25.02,8.49-39.32,8.49s-27.93-2.84-39.98-8.49c-12.07-5.66-21.67-14.15-28.83-25.47-7.15-11.32-10.72-25.02-10.72-41.1,0-.16.03-.29.03-.45H10.74c0,.16-.03.29-.03.45,0,24.73,5.64,45.73,16.97,63.01,11.32,17.28,26.81,30.37,46.47,39.32,19.67,8.93,41.85,13.4,66.57,13.4s46.77-4.46,66.14-13.4c19.34-8.95,34.62-22.04,45.78-39.32,11.17-17.28,16.76-38.28,16.76-63.01,0-.16-.03-.3-.03-.45h-50.48c0,.16.03.29.03.45Z"/>
  <path class="cls-1" d="M255.08,303.09c7.29-11.32,16.9-19.96,28.81-25.92,11.91-5.95,25.18-8.93,39.77-8.93s27.77,3.05,39.55,9.15c11.75,6.11,21.15,14.84,28.15,26.15,6.93,11.21,10.41,24.77,10.47,40.65h50.48c-.07-24.22-5.63-45.01-16.73-62.33-11.17-17.42-26.44-30.75-45.78-40-19.37-9.22-41.42-13.85-66.14-13.85s-46.91,4.63-66.57,13.85c-19.67,9.25-35.15,22.57-46.47,40-11.26,17.31-16.87,38.11-16.95,62.33h50.48c.07-16.17,3.7-29.88,10.93-41.1Z"/>
</svg>